# xmcd
#
# Track frame offsets:
# 150
# 19474
# 35249
# 51653
# 67151
# 82892
# 97960
# 115642
# 129688
# 143379
# 159441
# 190917
# 208616
# 228731
# 242300
# 257405
# 273118
# 287805
# 300374
#
# Disc length: 4234 seconds
#
#
# Revision: 0
# Processed by: cddbd v1.5.2PL0 Copyright (c) Steve Scherf et al.
# Submitted via: FreeRIP 2.95 
#
DISCID=08108813
DTITLE=Léo Magalhães - Ao vivo em Goiania
DYEAR=2009
DGENRE=Acoustic
TTITLE0=Locutor
TTITLE1=Não é amor
TTITLE2=POrto Seguro
TTITLE3=Bebo e Choro
TTITLE4=Primeiro de abril
TTITLE5=O fora
TTITLE6=O réu
TTITLE7=Cara Errado - (part. João Neto e Frederico)
TTITLE8=Era ora valer - (part. João Neto e Frederico)
TTITLE9=Camas separadas
TTITLE10=Pot - Pourri ( Andorinha Machucada, Tudo de novo, Pense em mim, Eu quero esse amor, Fio de cabelo, Ainda ontem chorei de saudade
TTITLE11=Você me balançou
TTITLE12=Rafaela
TTITLE13=Ela ta por ai
TTITLE14=Pot - Pourri (Sorriso Mudo, Nuvem de lágrima
TTITLE15=Tem outra querendo tomar o seu lugar
TTITLE16=Taça de pranto
TTITLE17=Pot - Pourri (Ela encasquetoum Bobe pra caraí)
TTITLE18=Domingo Legal
EXTD=
EXTT0=
EXTT1=
EXTT2=
EXTT3=
EXTT4=
EXTT5=
EXTT6=
EXTT7=
EXTT8=
EXTT9=
EXTT10=
EXTT11=
EXTT12=
EXTT13=
EXTT14=
EXTT15=
EXTT16=
EXTT17=
EXTT18=
PLAYORDER=
